# xmcd CD database file generated by Grip 2.96
# 
# Track frame offsets:
#       150
#       19875
#       38100
#       56700
#       77850
# 
# Disc length: 1226 seconds
# 
# Revision: 0
# Processed by: cddbd v1.4PL0 Copyright (c) Steve Scherf et al.
# Submitted via: Grip 2.96
# 
DISCID=3a04c805
DTITLE=Stiff Pickle Orchestra - 1st Recording
DYEAR=1900
DGENRE=
TTITLE0=`Taint Nobody's Business if I Do
TTITLE1=With Love in My Heart
TTITLE2=Monkey Man
TTITLE3=You Don't Have to Be
TTITLE4=Desert WInd
EXTD=
EXTT0=
EXTT1=
EXTT2=
EXTT3=
EXTT4=
PLAYORDER=
